<svg width="390" height="293" viewBox="0 0 390 293" fill="none" xmlns="http://www.w3.org/2000/svg">
<path d="M64.9591 255.541H320.58L331.402 175.168C331.695 173.051 331.451 170.91 330.744 168.89L289.672 53.818C287.844 48.7323 283.14 45.2283 277.728 44.9363L133.867 37.5147C129.845 37.2957 125.945 38.926 123.24 41.8947L61.8391 109.614C59.4503 112.242 58.2072 115.698 58.3778 119.25L64.9591 255.541Z" fill="#F4F4F4"/>
<path d="M310.271 226.049C310.222 226.049 310.173 226.025 310.149 226.001L297.401 213.201C297.327 213.128 297.327 213.031 297.401 212.958C297.474 212.885 297.571 212.885 297.644 212.958L310.392 225.757C310.466 225.83 310.466 225.928 310.392 226.001C310.368 226.025 310.319 226.049 310.271 226.049Z" fill="#21252B"/>
<path d="M322.775 217.921C322.701 217.873 322.58 217.897 322.531 217.97L313.171 232.108L315.486 175.241C315.486 175.143 315.413 175.07 315.316 175.07C315.218 175.07 315.145 175.143 315.145 175.241L312.488 240.478C312.488 240.576 312.561 240.649 312.659 240.649C312.756 240.649 312.83 240.576 312.83 240.478L313.146 232.765L322.799 218.165C322.872 218.067 322.848 217.97 322.775 217.921Z" fill="#21252B"/>
<path d="M314 209.843C313.951 209.843 313.926 209.819 313.878 209.794C313.805 209.721 313.805 209.624 313.853 209.551L328.454 192.907C328.527 192.834 328.625 192.834 328.698 192.883C328.771 192.956 328.771 193.053 328.722 193.126L314.121 209.77C314.097 209.819 314.048 209.843 314 209.843Z" fill="#21252B"/>
<path d="M327.646 201.987C331.09 197.944 332.121 193.17 329.949 191.324C327.775 189.478 323.219 191.258 319.773 195.301C316.329 199.344 315.298 204.118 317.469 205.964C319.644 207.811 324.199 206.03 327.646 201.987Z" fill="#FFBD3A"/>
<path opacity="0.3" d="M330.087 191.447L317.388 205.901C317.412 205.926 317.436 205.95 317.461 205.974C319.63 207.824 324.188 206.023 327.625 201.984C331.013 198.017 332.086 193.37 330.087 191.447Z" fill="black"/>
<path d="M305.024 220.556C306.777 218.866 305.636 214.848 302.474 211.581C299.313 208.313 295.33 207.035 293.578 208.724C291.825 210.414 292.968 214.433 296.127 217.7C299.289 220.967 303.272 222.246 305.024 220.556Z" fill="#FFBD3A"/>
<path opacity="0.3" d="M293.451 208.821L305.077 220.477C305.053 220.501 305.029 220.526 305.029 220.55C303.274 222.229 299.301 220.964 296.132 217.679C293.012 214.491 291.866 210.573 293.451 208.821Z" fill="black"/>
<path d="M320.175 180.151C320.416 174.848 318.354 170.446 315.57 170.32C312.787 170.194 310.335 174.39 310.093 179.693C309.852 184.997 311.912 189.398 314.695 189.524C317.479 189.65 319.934 185.454 320.175 180.151Z" fill="#FFBD3A"/>
<path opacity="0.3" d="M310.074 179.694C310.318 174.389 312.78 170.204 315.559 170.326L314.681 189.525C311.902 189.403 309.83 184.999 310.074 179.694Z" fill="black"/>
<path d="M323.749 223.555C325.867 220.249 326.096 216.619 324.258 215.445C322.42 214.273 319.215 216.001 317.097 219.307C314.979 222.613 314.752 226.244 316.587 227.417C318.425 228.59 321.631 226.861 323.749 223.555Z" fill="#FFBD3A"/>
<path opacity="0.3" d="M317.096 219.309C315.024 222.545 314.756 226.098 316.462 227.339L324.262 215.44L323.799 215.221C321.922 214.54 319.046 216.267 317.096 219.309Z" fill="black"/>
<path d="M311.611 239.847C311.514 239.847 311.441 239.774 311.441 239.701L307.272 196.728C307.272 196.631 307.321 196.558 307.419 196.533C307.516 196.533 307.589 196.582 307.614 196.679L311.782 239.652C311.806 239.774 311.733 239.847 311.611 239.847C311.636 239.847 311.636 239.847 311.611 239.847Z" fill="#21252B"/>
<path d="M308.326 206.155C310.627 205.878 312.058 202.094 311.527 197.705C310.995 193.315 308.699 189.982 306.401 190.259C304.102 190.537 302.671 194.321 303.203 198.71C303.734 203.1 306.028 206.433 308.326 206.155Z" fill="#FFBD3A"/>
<path opacity="0.3" d="M303.178 198.723C302.641 194.343 304.079 190.547 306.395 190.279L308.321 206.169C306.005 206.437 303.714 203.103 303.178 198.723Z" fill="black"/>
<path d="M308.345 255.639H317.022C318.655 255.639 319.972 254.325 319.972 252.694V241.233H305.396V252.694C305.396 254.325 306.712 255.639 308.345 255.639Z" fill="#868A91"/>
<path d="M320.289 239.676H305.079C304.664 239.676 304.299 240.016 304.299 240.454C304.299 240.868 304.64 241.233 305.079 241.233H320.289C320.703 241.233 321.069 240.892 321.069 240.454C321.069 240.041 320.703 239.676 320.289 239.676Z" fill="#868A91"/>
<path d="M319.971 241.233H306.711C306.297 241.233 305.931 240.892 305.931 240.454C305.931 240.041 306.272 239.676 306.711 239.676H305.102C304.688 239.676 304.322 240.016 304.322 240.454C304.322 240.868 304.664 241.233 305.102 241.233H305.419V241.476V252.718C305.419 254.349 306.735 255.663 308.369 255.663H313C313.073 255.663 313.097 255.663 313.097 255.663C311.05 255.663 309.27 254.203 308.88 252.183L306.784 241.476H319.995V241.233H319.971Z" fill="#61656D"/>
<path d="M196 53.7695H161.07V82.7262H196V53.7695Z" fill="#FFBD3A"/>
<path opacity="0.8" d="M196 53.7695H161.07V82.7262H196V53.7695Z" fill="white"/>
<path d="M193.513 56.373H163.556V80.1224H193.513V56.373Z" fill="white"/>
<path d="M163.556 72.116L166.822 69.6097C170.259 66.9817 175.012 66.8843 178.546 69.3907L181.252 67.1277C184.762 64.2077 189.832 64.0617 193.488 66.8113L193.513 66.8357V80.0973H163.556V72.116Z" fill="#FFBD3A"/>
<path opacity="0.5" d="M163.556 72.116L166.822 69.6097C170.259 66.9817 175.012 66.8843 178.546 69.3907L181.252 67.1277C184.762 64.2077 189.832 64.0617 193.488 66.8113L193.513 66.8357V80.0973H163.556V72.116Z" fill="white"/>
<path d="M177.376 64.8654C178.588 64.8654 179.57 63.885 179.57 62.6754C179.57 61.4657 178.588 60.4854 177.376 60.4854C176.165 60.4854 175.183 61.4657 175.183 62.6754C175.183 63.885 176.165 64.8654 177.376 64.8654Z" fill="#B2B6BB"/>
<path d="M179.133 68.9288L176.427 71.1431L176.208 70.8025L178.792 68.6611L179.133 68.9288Z" fill="white"/>
<path d="M161.07 53.7695H160.314V82.7262H161.07V53.7695Z" fill="#B2B6BB"/>
<path d="M86.4588 172.565H70.1032C69.64 172.565 69.2744 172.2 69.2744 171.737C69.2744 171.275 69.64 170.91 70.1032 170.91H86.4588V172.565Z" fill="#B2B6BB"/>
<path d="M145.714 171.762H72.2236V240.649H145.714V171.762Z" fill="#B2B6BB"/>
<path d="M216.964 171.762H88.2148V240.649H216.964V171.762Z" fill="#DADDDF"/>
<path d="M90.7725 177.602H214.597V236.78H90.7725V177.602ZM214.256 177.967H91.1625V236.415H214.256V177.967Z" fill="#B2B6BB"/>
<path d="M218.863 172.565H86.4332C85.9701 172.565 85.6045 172.2 85.6045 171.737C85.6045 171.275 85.9701 170.91 86.4332 170.91H218.838C219.301 170.91 219.667 171.275 219.667 171.737C219.667 172.2 219.301 172.565 218.863 172.565Z" fill="#DADDDF"/>
<path d="M214.597 216.607H90.7725V216.972H214.597V216.607Z" fill="#B2B6BB"/>
<path d="M214.597 197.02H90.7725V197.385H214.597V197.02Z" fill="#B2B6BB"/>
<path d="M155.927 184.05C156.627 184.05 157.194 183.484 157.194 182.785C157.194 182.086 156.627 181.52 155.927 181.52C155.227 181.52 154.659 182.086 154.659 182.785C154.659 183.484 155.227 184.05 155.927 184.05Z" fill="#B2B6BB"/>
<path opacity="0.15" d="M155.464 182.785C155.464 182.225 155.83 181.763 156.318 181.593C156.196 181.544 156.049 181.52 155.903 181.52C155.196 181.52 154.636 182.079 154.636 182.785C154.636 183.491 155.196 184.05 155.903 184.05C156.049 184.05 156.171 184.026 156.318 183.977C155.83 183.807 155.464 183.345 155.464 182.785Z" fill="black"/>
<path d="M155.927 203.371C156.627 203.371 157.194 202.804 157.194 202.105C157.194 201.406 156.627 200.84 155.927 200.84C155.227 200.84 154.659 201.406 154.659 202.105C154.659 202.804 155.227 203.371 155.927 203.371Z" fill="#B2B6BB"/>
<path opacity="0.15" d="M155.464 202.105C155.464 201.546 155.83 201.083 156.318 200.913C156.196 200.864 156.049 200.84 155.903 200.84C155.196 200.84 154.636 201.4 154.636 202.105C154.636 202.811 155.196 203.371 155.903 203.371C156.049 203.371 156.171 203.346 156.318 203.298C155.83 203.127 155.464 202.641 155.464 202.105Z" fill="black"/>
<path d="M155.927 222.934C156.627 222.934 157.194 222.368 157.194 221.669C157.194 220.97 156.627 220.403 155.927 220.403C155.227 220.403 154.659 220.97 154.659 221.669C154.659 222.368 155.227 222.934 155.927 222.934Z" fill="#B2B6BB"/>
<path opacity="0.15" d="M155.464 221.669C155.464 221.109 155.83 220.647 156.318 220.476C156.196 220.428 156.049 220.403 155.903 220.403C155.196 220.403 154.636 220.963 154.636 221.669C154.636 222.374 155.196 222.934 155.903 222.934C156.049 222.934 156.171 222.91 156.318 222.861C155.83 222.715 155.464 222.228 155.464 221.669Z" fill="black"/>
<path d="M85.6309 174.268L88.2146 172.564H216.988V173.343L85.6309 174.268Z" fill="#B2B6BB"/>
<path d="M75.4661 240.649L74.1986 254.69C74.1011 255.201 74.4911 255.687 75.003 255.687C75.3442 255.687 75.6611 255.468 75.783 255.128L79.4636 240.649H75.4661Z" fill="#DADDDF"/>
<path d="M75.9527 248.801L77.4883 248.436L79.4627 240.649H75.4652L74.1977 254.69C74.1245 255.079 74.3439 255.468 74.6852 255.614L75.9527 248.801Z" fill="#B2B6BB"/>
<path d="M89.8226 240.649L88.5551 254.69C88.4576 255.201 88.8476 255.687 89.3594 255.687C89.7007 255.687 90.0176 255.468 90.1394 255.128L93.8201 240.649H89.8226Z" fill="#DADDDF"/>
<path d="M91.1642 242.182L93.4555 241.744L93.8455 240.625H89.848L88.5805 254.665C88.5073 255.055 88.7267 255.444 89.068 255.59L91.1642 242.182Z" fill="#B2B6BB"/>
<path d="M199.753 240.649L201.021 254.69C201.118 255.201 200.728 255.687 200.216 255.687C199.875 255.687 199.558 255.468 199.436 255.128L195.756 240.649H199.753Z" fill="#DADDDF"/>
<path d="M199.046 248.12L200.411 247.779L199.753 240.649H195.756L199.436 255.128C199.558 255.468 199.875 255.687 200.216 255.687C200.241 255.687 200.241 255.687 200.265 255.687L199.046 248.12Z" fill="#B2B6BB"/>
<path d="M214.499 240.649L215.767 254.69C215.864 255.201 215.474 255.687 214.963 255.687C214.621 255.687 214.304 255.468 214.183 255.128L210.502 240.649H214.499Z" fill="#DADDDF"/>
<path d="M212.939 241.866L214.694 241.55L214.499 240.649H210.502L214.183 255.128C214.304 255.468 214.621 255.687 214.963 255.687C214.987 255.687 214.987 255.687 215.011 255.687L212.939 241.866Z" fill="#B2B6BB"/>
<path d="M169.287 147.793H184.96C185.13 147.793 185.277 147.939 185.301 148.109L185.325 148.645C185.325 148.815 185.204 148.961 185.033 148.961H169.36C169.189 148.961 169.043 148.815 169.019 148.645L168.994 148.109C168.994 147.915 169.116 147.793 169.287 147.793Z" fill="#21252B"/>
<path d="M178.109 147.793H213.575C213.745 147.793 213.891 147.939 213.916 148.109L213.94 148.645C213.94 148.815 213.818 148.961 213.648 148.961H178.182C178.011 148.961 177.865 148.815 177.841 148.645L177.816 148.109C177.816 147.915 177.938 147.793 178.109 147.793Z" fill="#3F4249"/>
<path d="M213.135 148.012H176.987C176.938 148.012 176.865 147.963 176.865 147.915C176.865 147.866 176.914 147.817 176.963 147.817H213.111C213.16 147.817 213.233 147.866 213.233 147.915C213.233 147.963 213.184 148.012 213.135 148.012Z" fill="#21252B"/>
<path d="M178.037 147.793H183.57C183.984 147.793 184.35 147.501 184.399 147.063L186.324 124.482C186.398 123.947 185.934 123.436 185.398 123.436H179.865C179.451 123.436 179.085 123.728 179.036 124.166L177.111 146.747C177.013 147.282 177.476 147.793 178.037 147.793Z" fill="#21252B"/>
<path d="M178.815 147.793H213.111C213.525 147.793 213.891 147.501 213.939 147.063L215.865 124.482C215.938 123.947 215.475 123.436 214.939 123.436H180.643C180.229 123.436 179.863 123.728 179.814 124.166L177.889 146.747C177.816 147.282 178.254 147.793 178.815 147.793Z" fill="#3F4249"/>
<path opacity="0.6" d="M198.266 134.02C198.071 134.507 198.339 134.92 198.851 134.945C198.875 134.945 198.899 134.945 198.924 134.945C198.387 135.602 197.534 136.04 196.779 136.015C195.731 135.991 195.194 135.139 195.584 134.093C195.974 133.047 197.144 132.219 198.192 132.244C198.875 132.268 199.338 132.609 199.46 133.144C198.972 133.168 198.436 133.533 198.266 134.02Z" fill="black"/>
<path d="M134.161 150.226C137.574 120.077 131.431 101.657 129.262 95.3055L132.699 94.3809L144.057 94.4782L145.495 94.9892C145.788 100.635 149.834 125.941 153.734 150.202H134.161V150.226Z" fill="white"/>
<path d="M150.59 250.382L166.409 250.771L160.096 246.27C159.048 245.515 158.39 244.323 158.341 243.033L158.122 238.094L149.518 238.118L150.59 250.382Z" fill="#FC9D9D"/>
<path opacity="0.15" d="M152.345 244.615V244.518C152.296 243.958 152.686 243.472 153.222 243.399L158.268 242.669L158.219 241.671H149.785L150.541 250.042L157.439 249.287L155.172 248.387C153.588 247.754 152.491 246.294 152.345 244.615Z" fill="black"/>
<path d="M122.096 250.09H129.213L130.529 238.069L122.12 238.094L122.096 250.09Z" fill="#FC9D9D"/>
<path opacity="0.15" d="M123.874 248.07L124.045 244.372C124.069 243.885 124.435 243.496 124.922 243.423L130.041 242.644L130.163 241.622L122.144 241.646L122.119 250.163L123.874 248.07Z" fill="black"/>
<path d="M121.632 143.389V241.671H130.87L138.914 161.541C138.962 161.006 139.401 160.617 139.937 160.617C140.449 160.617 140.888 161.006 140.937 161.541L149.492 241.671H158.731L155.391 143.389H121.632Z" fill="#FFBD3A"/>
<path opacity="0.2" d="M121.632 143.389V241.671H130.87L138.914 161.541C138.962 161.006 139.401 160.617 139.937 160.617C140.449 160.617 140.888 161.006 140.937 161.541L149.492 241.671H158.731L155.391 143.389H121.632Z" fill="white"/>
<path d="M122.632 245.856L122.851 245.637C124.509 243.982 127.361 244.007 128.97 245.71L129.091 245.856C129.506 246.294 129.725 246.854 129.725 247.413V248.338C129.725 248.873 129.798 249.409 129.969 249.92L130.725 252.426C130.92 253.034 131.017 253.667 131.017 254.3V254.616C131.017 255.103 130.578 255.492 130.066 255.492H121.316C120.78 255.492 120.365 255.103 120.365 254.616V254.494C120.365 253.764 120.487 253.034 120.731 252.329L121.608 249.871C121.803 249.311 121.925 248.727 121.925 248.119L121.95 247.413C121.974 246.854 122.218 246.294 122.632 245.856Z" fill="#3F4249"/>
<path d="M121.388 241.671H131.235L131.43 239.651H121.412L121.388 241.671Z" fill="#FFBD3A"/>
<path opacity="0.15" d="M121.388 241.671H125.507L125.605 239.651H121.412L121.388 241.671Z" fill="black"/>
<path opacity="0.5" d="M120.365 254.494V254.616C120.365 255.103 120.804 255.492 121.316 255.492H130.066C130.603 255.492 131.017 255.103 131.017 254.616V254.3C131.017 254.178 131.017 254.056 130.993 253.935H120.365C120.365 254.105 120.365 254.3 120.365 254.494Z" fill="black"/>
<path d="M149.494 247.584V253.74C149.494 254.738 150.299 255.541 151.298 255.541H172.26C172.675 255.541 173.016 255.2 173.016 254.787C173.016 253.327 172.065 252.013 170.676 251.55L165.947 249.993L159.951 245.345C159.342 244.859 158.464 244.883 157.855 245.394L155.198 247.657C154.808 247.998 154.272 248.095 153.784 247.949L150.42 246.903C149.933 246.781 149.494 247.122 149.494 247.584Z" fill="#3F4249"/>
<path d="M151.297 255.541H172.259C172.674 255.541 173.015 255.2 173.015 254.787C173.015 254.519 172.991 254.276 172.918 254.032H149.518C149.664 254.884 150.395 255.541 151.297 255.541Z" fill="black"/>
<path d="M159.827 247.803C159.778 247.803 159.73 247.779 159.705 247.754C159.632 247.681 159.632 247.56 159.705 247.487L160.973 246.124C161.046 246.051 161.168 246.051 161.241 246.124C161.314 246.197 161.314 246.319 161.241 246.392L159.973 247.754C159.925 247.779 159.876 247.803 159.827 247.803Z" fill="white"/>
<path d="M160.826 248.581C160.777 248.581 160.729 248.557 160.704 248.533C160.631 248.46 160.631 248.338 160.704 248.265L161.972 246.902C162.045 246.829 162.167 246.829 162.24 246.902C162.313 246.975 162.313 247.097 162.24 247.17L160.972 248.533C160.924 248.557 160.875 248.581 160.826 248.581Z" fill="white"/>
<path d="M161.828 249.361C161.779 249.361 161.731 249.336 161.706 249.312C161.633 249.239 161.633 249.117 161.706 249.044L162.974 247.682C163.047 247.609 163.169 247.609 163.242 247.682C163.315 247.755 163.315 247.876 163.242 247.949L161.974 249.312C161.95 249.336 161.901 249.361 161.828 249.361Z" fill="white"/>
<path d="M127.508 247.925C127.484 247.925 127.435 247.925 127.41 247.9C125.753 247.073 124.193 247.9 124.193 247.9C124.095 247.949 123.949 247.925 123.9 247.803C123.852 247.706 123.876 247.56 123.998 247.511C124.071 247.462 125.753 246.586 127.63 247.511C127.727 247.56 127.776 247.706 127.727 247.803C127.679 247.876 127.605 247.925 127.508 247.925Z" fill="white"/>
<path d="M127.508 249.044C127.484 249.044 127.435 249.044 127.41 249.019C125.729 248.192 124.193 249.019 124.193 249.019C124.095 249.068 123.949 249.044 123.9 248.922C123.852 248.825 123.876 248.679 123.998 248.63C124.071 248.581 125.753 247.705 127.63 248.63C127.727 248.679 127.776 248.825 127.727 248.922C127.679 248.995 127.605 249.044 127.508 249.044Z" fill="white"/>
<path d="M127.508 250.139C127.484 250.139 127.435 250.139 127.41 250.115C125.753 249.288 124.193 250.115 124.193 250.115C124.095 250.164 123.949 250.139 123.9 250.018C123.852 249.92 123.876 249.774 123.998 249.726C124.071 249.677 125.753 248.801 127.63 249.726C127.727 249.774 127.776 249.92 127.727 250.018C127.679 250.091 127.605 250.139 127.508 250.139Z" fill="white"/>
<path opacity="0.15" d="M155.001 240.551L145.885 164.899C145.593 162.466 143.521 160.641 141.083 160.641H139.938C140.449 160.641 140.888 161.03 140.937 161.565L149.444 241.257L155.001 240.551Z" fill="black"/>
<path d="M149.249 241.671H159.072L158.926 239.651H149.054L149.249 241.671Z" fill="#FFBD3A"/>
<path opacity="0.15" d="M149.249 241.671H155.099L154.879 239.651H149.054L149.249 241.671Z" fill="black"/>
<path d="M180.06 102.581L180.913 100.464C181.23 99.6855 181.62 98.9312 182.107 98.2255L184.301 95.5002C184.35 95.4272 184.423 95.3785 184.52 95.4029C185.203 95.7435 185.276 96.3762 185.032 97.0819C184.862 97.5199 184.52 98.2012 184.277 98.5662C184.082 98.8825 184.399 98.9312 184.52 98.7609L189.322 93.7969C189.542 93.5779 189.907 93.5535 190.127 93.7482C190.37 93.9672 190.419 94.3322 190.2 94.5755C189.371 95.5732 187.47 97.8849 187.47 97.8849L191.248 94.7702C191.492 94.5755 191.857 94.5999 192.077 94.8189C192.345 95.1109 192.32 95.5489 192.052 95.8165C190.955 96.8872 188.445 99.4179 188.445 99.4179L191.809 96.7655C192.052 96.5952 192.369 96.6439 192.564 96.8872C192.759 97.1305 192.735 97.4712 192.515 97.6902C191.54 98.5662 189.688 100.513 189.688 100.513L191.809 98.8339C192.004 98.7122 192.272 98.7852 192.394 98.9555C192.515 99.1502 192.491 99.3935 192.345 99.5639L185.008 106.937L182.765 110.076L174.697 109.468L180.06 102.581Z" fill="#FC9D9D"/>
<g opacity="0.15">
<path opacity="0.15" d="M184.715 103.628C184.691 103.628 184.666 103.628 184.642 103.628C184.545 103.604 184.496 103.482 184.52 103.385C185.495 100.684 184.276 99.1993 184.228 99.1506C184.155 99.0776 184.179 98.9559 184.252 98.8829C184.325 98.8099 184.447 98.8343 184.52 98.9073C184.569 98.9803 185.934 100.611 184.886 103.531C184.886 103.579 184.813 103.628 184.715 103.628Z" fill="black"/>
</g>
<path d="M158.024 101.925L165.824 120.467L179.937 102.728L184.739 107.254L170.382 131.636C168.091 135.505 162.436 135.359 160.364 131.344L152.052 115.162L158.024 101.925Z" fill="#21252B"/>
<path d="M143.863 81.1922C143.863 81.1922 133.918 74.9629 133.528 82.5792L133.382 84.5502L132.699 94.5269C132.699 94.8189 132.797 95.0865 132.967 95.2812L138.72 99.1989C138.89 99.3205 139.134 99.2962 139.28 99.1745L143.546 95.5489C143.839 95.3055 143.985 94.9162 143.936 94.5512L143.302 88.6382C143.424 88.1272 143.497 87.5432 143.497 86.8862C143.595 83.8932 143.863 81.1922 143.863 81.1922Z" fill="#FC9D9D"/>
<path d="M144.74 81.6555C146.598 81.6555 148.103 80.1519 148.103 78.2975C148.103 76.4428 146.598 74.9395 144.74 74.9395C142.882 74.9395 141.376 76.4428 141.376 78.2975C141.376 80.1519 142.882 81.6555 144.74 81.6555Z" fill="#3F4249"/>
<path d="M144.984 75.8147C144.984 75.8147 148.518 90.6094 140.913 91.607C134.332 92.483 133.601 82.2387 133.601 82.2387L133.917 75.5957L144.984 75.8147Z" fill="#FC9D9D"/>
<path d="M144.544 76.7392L137.816 77.2259C136.988 77.2989 136.354 78.0289 136.403 78.8562C136.476 79.6836 135.842 80.4136 134.989 80.4866C134.769 80.5109 134.599 80.7056 134.599 80.9246L134.696 82.4089C134.721 82.6036 134.574 82.7739 134.379 82.7739C134.209 82.7982 134.063 82.6766 134.014 82.5062L133.721 81.0949L133.429 80.6326L131.844 81.6059C131.844 81.6059 129.285 77.6639 130.504 74.0626C131.211 72.0186 133.234 71.2886 134.209 71.1669C134.526 71.1182 134.794 70.9479 134.964 70.6802C135.354 70.0232 136.305 68.8796 138.426 68.9526C140.059 69.0012 140.961 69.9016 141.424 70.6072C141.692 71.0209 142.253 71.1912 142.716 70.9722C143.398 70.6559 144.398 70.4856 145.568 71.1912C147.761 72.5782 146.884 76.3742 144.544 76.7392Z" fill="#3F4249"/>
<path opacity="0.15" d="M133.38 85.0374C133.38 85.0374 134.013 85.086 134.355 84.8184L133.282 86.473L133.38 85.0374Z" fill="black"/>
<path d="M133.747 81.0954C133.747 81.0954 133.259 79.7084 131.797 80.3411C130.139 81.0711 130.481 84.8184 133.284 85.0374C134.746 85.1591 134.454 84.3074 134.21 83.1638C133.747 81.0954 133.747 81.0954 133.747 81.0954Z" fill="#FC9D9D"/>
<path opacity="0.3" d="M131.724 81.3147C132.016 81.12 132.284 81.047 132.528 81.0957C132.772 81.1443 132.991 81.3146 133.162 81.6066C133.332 81.8986 133.43 82.2393 133.43 82.6287L133.454 82.945C133.454 83.0423 133.381 83.1153 133.284 83.1153C133.186 83.1153 133.113 83.0423 133.113 82.945L133.089 82.6287C133.089 82.5313 133.04 82.0447 132.869 81.777C132.747 81.5823 132.601 81.4607 132.455 81.412C132.309 81.3877 132.114 81.4363 131.919 81.558C131.845 81.6067 131.724 81.5823 131.675 81.5093C131.626 81.485 131.65 81.3877 131.724 81.3147Z" fill="black"/>
<path d="M144.593 77.0559L143.813 77.1289C143.74 77.1289 143.643 77.0802 143.643 76.9829C143.643 76.8855 143.691 76.8125 143.789 76.8125L144.569 76.7395C144.666 76.7395 144.764 76.7152 144.861 76.6909C145.056 76.6179 145.422 76.4962 145.763 76.2529C145.836 76.2042 145.934 76.2285 145.983 76.3015C146.031 76.3745 146.007 76.4719 145.934 76.5205C145.568 76.7639 145.154 76.9342 144.959 76.9829C144.837 77.0072 144.715 77.0315 144.593 77.0559Z" fill="#FC9D9D"/>
<path opacity="0.15" d="M143.789 92.7995L143.546 90.4149C142.912 91.0719 141.084 92.0209 139.012 91.5342C138.987 91.5099 139.012 91.5342 139.012 91.5342C137.744 91.2179 136.891 90.5122 136.355 89.8795C136.306 89.8065 136.209 89.8065 136.135 89.8552C136.062 89.9039 136.062 90.0012 136.111 90.0742C136.769 90.8285 137.89 91.7289 139.621 91.9479C141.742 93.3592 143.789 92.7995 143.789 92.7995Z" fill="black"/>
<g opacity="0.3">
<path opacity="0.3" d="M141.474 88.5895C141.449 88.6138 141.474 88.6138 141.474 88.5895C140.84 88.6381 140.547 88.6624 140.547 88.6624C140.426 88.6624 140.353 88.5895 140.328 88.4678C140.328 88.3461 140.401 88.2488 140.523 88.2488C140.523 88.2488 140.816 88.2244 141.425 88.1758C141.547 88.1758 141.644 88.2488 141.644 88.3461C141.644 88.4921 141.571 88.5895 141.474 88.5895Z" fill="black"/>
</g>
<g opacity="0.3">
<path opacity="0.3" d="M141.817 87.7141C140.159 87.9575 139.404 87.0571 139.136 86.6191C139.087 86.5218 139.111 86.4245 139.209 86.3515C139.306 86.3028 139.404 86.3272 139.477 86.4245C139.721 86.8625 140.549 87.8115 142.548 87.1545C142.646 87.1302 142.743 87.1788 142.792 87.2762C142.816 87.3735 142.768 87.4708 142.67 87.5195C142.353 87.6168 142.061 87.6898 141.817 87.7141Z" fill="black"/>
</g>
<path d="M139.523 83.3339C139.86 83.3339 140.133 83.0616 140.133 82.7255C140.133 82.3895 139.86 82.1172 139.523 82.1172C139.187 82.1172 138.914 82.3895 138.914 82.7255C138.914 83.0616 139.187 83.3339 139.523 83.3339Z" fill="#21252B"/>
<path d="M139.791 82.6525C139.858 82.6525 139.913 82.598 139.913 82.5308C139.913 82.4637 139.858 82.4092 139.791 82.4092C139.724 82.4092 139.669 82.4637 139.669 82.5308C139.669 82.598 139.724 82.6525 139.791 82.6525Z" fill="white"/>
<path d="M144.35 83.3583C144.686 83.3583 144.959 83.086 144.959 82.7499C144.959 82.4139 144.686 82.1416 144.35 82.1416C144.013 82.1416 143.74 82.4139 143.74 82.7499C143.74 83.086 144.013 83.3583 144.35 83.3583Z" fill="#21252B"/>
<path d="M144.617 82.6769C144.684 82.6769 144.739 82.6224 144.739 82.5553C144.739 82.4881 144.684 82.4336 144.617 82.4336C144.55 82.4336 144.495 82.4881 144.495 82.5553C144.495 82.6224 144.55 82.6769 144.617 82.6769Z" fill="white"/>
<g opacity="0.3">
<path opacity="0.3" d="M142.254 86.23L141.45 86.2786C141.352 86.2786 141.279 86.2056 141.255 86.1083C141.255 86.011 141.328 85.938 141.426 85.9136L142.23 85.865C142.425 85.8406 142.596 85.6703 142.571 85.4756C142.547 85.281 142.376 85.1106 142.181 85.135C142.084 85.135 142.011 85.062 141.986 84.9646C141.962 84.8673 142.059 84.7943 142.157 84.77C142.547 84.7456 142.888 85.0376 142.937 85.427C142.937 85.865 142.644 86.2056 142.254 86.23Z" fill="black"/>
</g>
<path d="M146.08 81.168H143.423H143.057H140.742H140.717H137.719C137.232 81.168 136.842 81.5573 136.842 82.044V82.7253C136.842 84.0393 137.914 85.11 139.231 85.11C140.547 85.11 141.619 84.0393 141.619 82.7253V82.044C141.619 81.8493 141.546 81.6546 141.424 81.5086H142.351C142.229 81.6546 142.18 81.8493 142.18 82.044V82.7253C142.18 84.0393 143.252 85.11 144.569 85.11C145.885 85.11 146.957 84.0393 146.957 82.7253V82.044C146.957 81.5573 146.567 81.168 146.08 81.168ZM141.278 82.044V82.7253C141.278 83.8446 140.376 84.7693 139.255 84.7693C138.134 84.7693 137.207 83.869 137.207 82.7496V82.0683C137.207 81.7763 137.451 81.533 137.744 81.533H140.742H140.766C141.034 81.533 141.278 81.752 141.278 82.044ZM146.616 82.7253C146.616 83.8446 145.714 84.7693 144.593 84.7693C143.472 84.7693 142.546 83.869 142.546 82.7496V82.0683C142.546 81.7763 142.789 81.533 143.082 81.533H143.447H146.104C146.397 81.533 146.641 81.7763 146.641 82.0683L146.616 82.7253Z" fill="#21252B"/>
<g opacity="0.15">
<path opacity="0.15" d="M152.71 145.822H132.015C131.893 145.822 131.82 145.725 131.82 145.627C131.82 145.53 131.918 145.433 132.015 145.433H152.71C152.832 145.433 152.905 145.53 152.905 145.627C152.905 145.725 152.832 145.822 152.71 145.822Z" fill="black"/>
</g>
<path opacity="0.15" d="M144.739 94.7705C144.739 94.7705 145.617 125.041 147.932 145.481H150.906L144.739 94.7705Z" fill="black"/>
<path opacity="0.15" d="M137.988 145.604L125.728 147.258C125.728 147.258 125.411 148.134 125.021 149.424L121.608 150.957V239.603L125.582 239.628L129.189 162.369C139.695 158.622 137.988 145.604 137.988 145.604Z" fill="black"/>
<path opacity="0.15" d="M155.586 159.108C155.611 159.108 155.635 159.084 155.66 159.084L153.88 145.481H147.957L149.03 155.336C149.371 158.475 152.686 160.398 155.586 159.108Z" fill="black"/>
<g opacity="0.15">
<path opacity="0.15" d="M149.442 98.5664H140.009L139.302 99.1747C139.132 99.3207 138.888 99.3451 138.693 99.1991L137.767 98.5664H127.407V99.6371H149.442V98.5664Z" fill="#FFBD3A"/>
<path opacity="0.15" d="M149.442 103.165H127.407V104.236H149.442V103.165Z" fill="#FFBD3A"/>
<path opacity="0.15" d="M149.442 107.789H127.407V108.86H149.442V107.789Z" fill="black"/>
<path opacity="0.15" d="M149.442 112.388H127.407V113.458H149.442V112.388Z" fill="black"/>
<path opacity="0.15" d="M149.442 117.011H127.407V118.081H149.442V117.011Z" fill="black"/>
<path opacity="0.15" d="M149.442 121.61H127.407V122.681H149.442V121.61Z" fill="black"/>
<path opacity="0.15" d="M149.442 126.233H127.407V127.304H149.442V126.233Z" fill="black"/>
<path opacity="0.15" d="M150.539 130.832H127.407V131.903H150.539V130.832Z" fill="black"/>
<path opacity="0.15" d="M151.27 135.456H127.407V136.527H151.27V135.456Z" fill="black"/>
<path opacity="0.15" d="M152.708 140.055H127.407V141.125H152.708V140.055Z" fill="black"/>
</g>
<path d="M120.512 156.821L121.048 124.384L112.955 113.58L112.76 104.674C112.687 101.219 115.1 98.1773 118.489 97.4473L132.139 94.5273C134.04 100.1 138.915 122.389 137.964 148.061C137.745 154.193 132.65 159.059 126.508 159.059H122.73C121.487 159.084 120.487 158.062 120.512 156.821Z" fill="#21252B"/>
<path opacity="0.4" d="M127.409 127.304L121.047 124.408L120.511 156.845C120.487 158.086 121.486 159.108 122.729 159.108H126.507C126.946 159.108 127.361 159.083 127.775 159.035C127.677 147.963 127.409 127.304 127.409 127.304Z" fill="black"/>
<path d="M158.829 105.794L156.123 158.646C156.099 158.889 155.904 159.084 155.66 159.084H155.221C153.564 159.084 152.15 157.867 151.882 156.237C148.177 132.195 144.984 100.197 144.716 94.7949L153.418 97.5689C156.245 98.4449 159 101.949 158.829 105.794Z" fill="#21252B"/>
<path d="M155.366 136.04L156.219 125.212H148.492L149.15 136.04C149.175 136.308 149.394 136.527 149.687 136.527H154.83C155.122 136.503 155.342 136.308 155.366 136.04Z" fill="white"/>
<path d="M156.245 124.287H155.392L155.002 123.29C154.978 123.217 154.904 123.192 154.856 123.192H149.664C149.591 123.192 149.542 123.241 149.518 123.29L149.128 124.287H148.469C148.372 124.287 148.299 124.36 148.299 124.458V125.066C148.299 125.163 148.372 125.236 148.469 125.236H156.269C156.367 125.236 156.44 125.163 156.44 125.066V124.458C156.416 124.36 156.343 124.287 156.245 124.287Z" fill="#FFBD3A"/>
<path opacity="0.2" d="M156.245 124.287H155.392L155.002 123.29C154.978 123.217 154.904 123.192 154.856 123.192H149.664C149.591 123.192 149.542 123.241 149.518 123.29L149.128 124.287H148.469C148.372 124.287 148.299 124.36 148.299 124.458V125.066C148.299 125.163 148.372 125.236 148.469 125.236H156.269C156.367 125.236 156.44 125.163 156.44 125.066V124.458C156.416 124.36 156.343 124.287 156.245 124.287Z" fill="white"/>
<path opacity="0.15" d="M155.319 124.093H151.029L151.346 123.192H149.664C149.591 123.192 149.542 123.241 149.518 123.29L149.128 124.287H148.469C148.372 124.287 148.299 124.36 148.299 124.458V125.066C148.299 125.163 148.372 125.236 148.469 125.236H149.859C149.981 124.896 150.127 124.482 150.127 124.482C150.151 124.385 150.249 124.336 150.346 124.336H150.956H155.392L155.319 124.093Z" fill="black"/>
<path opacity="0.15" d="M156.221 125.479L156.245 125.212H148.519L149.177 136.04C149.201 136.308 149.42 136.527 149.713 136.527H150.079L150.347 125.869L156.221 125.479Z" fill="black"/>
<path d="M152.345 133.29C153.96 133.29 155.27 132.026 155.27 130.467C155.27 128.908 153.96 127.645 152.345 127.645C150.73 127.645 149.42 128.908 149.42 130.467C149.42 132.026 150.73 133.29 152.345 133.29Z" fill="#FFBD3A"/>
<path d="M146.202 128.788L148.639 127.645L148.664 128.18C148.688 128.594 149.029 128.91 149.444 128.91L155.684 128.861C156.147 128.861 156.512 129.226 156.512 129.689V129.713C156.512 130.175 156.147 130.565 155.659 130.589C154.855 130.589 153.758 130.613 153.758 130.613L155.659 130.589C156.122 130.589 156.512 130.954 156.512 131.416C156.512 131.879 156.147 132.268 155.684 132.268L153.709 132.292L155.757 132.268C156.195 132.268 156.537 132.609 156.561 133.047C156.561 133.46 156.244 133.801 155.83 133.85C155.001 133.923 153.758 134.02 153.758 134.02L155.976 134.239C156.293 134.263 156.561 134.531 156.561 134.872V134.896C156.561 135.261 156.269 135.553 155.903 135.553C153.319 135.553 140.425 135.894 140.425 135.894L143.057 129.08L144.252 129.153C144.91 129.153 145.592 129.056 146.202 128.788Z" fill="#FC9D9D"/>
<g opacity="0.15">
<path opacity="0.15" d="M155.537 130.759H154.172C154.05 130.759 153.977 130.662 153.977 130.565C153.977 130.467 154.074 130.37 154.172 130.37H155.537C155.658 130.37 155.732 130.467 155.732 130.565C155.732 130.662 155.634 130.759 155.537 130.759Z" fill="black"/>
</g>
<g opacity="0.15">
<path opacity="0.15" d="M155.636 132.464H154.247C154.125 132.464 154.052 132.366 154.052 132.269C154.052 132.172 154.149 132.074 154.247 132.074H155.636C155.758 132.074 155.831 132.172 155.831 132.269C155.831 132.366 155.734 132.464 155.636 132.464Z" fill="black"/>
</g>
<path d="M112.783 104.066V132.074C112.783 135.042 115.294 137.378 118.243 137.208L144.324 135.748V129.105L124.239 127.864L124.776 103.604" fill="#21252B"/>
<path opacity="0.4" d="M119.171 133.972C117.148 134.045 115.368 132.536 115.368 130.03L115.734 103.701C115.905 100.927 116.733 98.7861 119.025 97.3018L118.513 97.4234C114.978 98.1778 112.59 101.39 112.785 104.894V132.05C112.785 135.018 115.295 137.379 118.269 137.16L144.326 135.748V134.215L119.171 133.972Z" fill="black"/>
<path opacity="0.4" d="M137.694 128.715L137.67 128.302L127.384 127.645L124.971 108.324C124.946 108.154 124.702 108.154 124.678 108.348L124.264 127.888L127.432 128.083L137.694 128.715Z" fill="black"/>
<path opacity="0.15" d="M179.937 102.728L185.372 106.524L184.982 106.913L184.738 107.254L179.937 102.728Z" fill="black"/>
<path opacity="0.15" d="M144.326 129.105L144.96 133.145C145.082 133.948 145.764 134.532 146.569 134.556L156.587 134.824C156.587 134.824 156.587 135.432 155.929 135.481L144.326 135.724V129.105Z" fill="black"/>
<path opacity="0.4" d="M162.459 129.057L158.462 121.562L158.754 114.019C158.754 113.897 158.681 113.8 158.559 113.8C158.437 113.8 158.34 113.873 158.34 113.994L158.047 121.538C158.047 121.562 158.023 121.586 158.023 121.611L157.73 126.21L160.363 131.344C162.41 135.359 168.09 135.505 170.381 131.636L170.576 131.295C167.895 132.974 164.068 132.196 162.459 129.057Z" fill="black"/>
<path opacity="0.4" d="M164.947 121.634L165.824 120.466L164.654 117.692L164.41 121.44C164.386 121.732 164.776 121.878 164.947 121.634Z" fill="black"/>
<path d="M113.588 152.636H118.39L103.984 255.541H102.107L113.588 152.636Z" fill="#61656D"/>
<path d="M301.423 255.541H299.546L285.141 152.636H289.942L301.423 255.541Z" fill="#61656D"/>
<path opacity="0.5" d="M102.107 255.541H102.912L115.27 155.531C115.367 154.826 115.928 154.266 116.635 154.217L118.195 154.071L118.39 152.66H113.588L102.107 255.541Z" fill="black"/>
<path opacity="0.5" d="M300.229 255.541L287.407 155.629C287.31 154.899 287.797 154.193 288.529 154.047L290.064 153.731L289.942 152.611H285.141L299.546 255.517H300.229V255.541Z" fill="black"/>
<path d="M98.842 152.636H103.644L89.2382 255.541H87.3613L98.842 152.636Z" fill="#61656D"/>
<path d="M286.674 255.541H284.797L270.392 152.636H275.193L286.674 255.541Z" fill="#61656D"/>
<path opacity="0.5" d="M87.3613 255.541H88.1657L92.9676 219.066C92.9676 219.066 92.9676 219.066 94.4545 218.214L103.424 154.047L103.619 152.636H98.8176L87.3613 255.541Z" fill="black"/>
<path opacity="0.5" d="M285.481 255.541L280.801 219.358C282.483 218.19 282.483 218.19 282.483 218.19L275.17 152.611H270.368L284.774 255.517H285.481V255.541Z" fill="black"/>
<path d="M278.436 129.446C278.665 129.446 278.85 129.26 278.85 129.032C278.85 128.803 278.665 128.618 278.436 128.618C278.207 128.618 278.021 128.803 278.021 129.032C278.021 129.26 278.207 129.446 278.436 129.446Z" fill="white"/>
<path d="M237.364 101.949L229.174 118.326L218.01 118.107L217.011 123.411L229.588 125.893C231.636 126.258 233.708 125.431 234.902 123.752L241.093 115.089" fill="#FFBD3A"/>
<path d="M204.385 115.917L201.435 115.527L197.925 116.549C197.633 116.647 197.511 116.939 197.682 117.182C197.803 117.352 198.023 117.425 198.242 117.377L201.606 116.744L203.702 117.425L201.606 116.744L198.681 117.571C198.437 117.644 198.34 117.888 198.437 118.082C198.535 118.253 198.754 118.326 198.949 118.277L201.898 117.717L204.945 118.666L201.898 117.717L199.802 118.569C199.656 118.642 199.607 118.812 199.705 118.934C199.778 119.031 199.924 119.08 200.07 119.031L202.508 118.447L205.384 119.153L204.385 115.917Z" fill="#966363"/>
<path opacity="0.15" d="M204.385 115.917L201.435 115.527L197.925 116.549C197.633 116.647 197.511 116.939 197.682 117.182C197.803 117.352 198.023 117.425 198.242 117.377L201.606 116.744L203.702 117.425L201.606 116.744L198.681 117.571C198.437 117.644 198.34 117.888 198.437 118.082C198.535 118.253 198.754 118.326 198.949 118.277L201.898 117.717L204.945 118.666L201.898 117.717L199.802 118.569C199.656 118.642 199.607 118.812 199.705 118.934C199.778 119.031 199.924 119.08 200.07 119.031L202.508 118.447L205.384 119.153L204.385 115.917Z" fill="black"/>
<path d="M204.191 114.967L208.529 117.474C208.773 117.62 209.066 117.693 209.358 117.717L218.011 118.106L217.012 123.411L210.089 122.048C209.846 122 209.602 122 209.382 122.048L208.993 122.121C207.481 122.511 205.994 122.34 204.727 121.586H204.702C204.532 121.489 204.337 121.416 204.118 121.391C203.362 121.318 201.534 121.124 201.534 121.124C201.412 121.124 201.339 121.026 201.339 120.929C201.339 120.467 201.729 120.053 202.289 119.98L203.581 119.81C204.264 119.712 204.654 119.08 204.361 118.544L203.069 116.281C202.996 116.135 202.85 116.038 202.679 115.989L198.097 114.797C197.902 114.748 197.756 114.578 197.804 114.408C197.829 114.189 198.072 114.043 198.316 114.067C199.486 114.213 203.045 114.724 203.874 114.87C203.996 114.87 204.093 114.894 204.191 114.967Z" fill="#966363"/>
<path opacity="0.15" d="M229.199 118.326L230.662 118.374C231.003 118.374 231.32 118.18 231.442 117.839L233.855 109.03L229.199 118.326Z" fill="black"/>
<path d="M263.421 241.282C263.129 242.328 263.08 242.742 263.104 243.788L263.08 250.796C263.129 252.013 263.47 253.205 264.079 254.276L264.226 254.519C264.591 255.152 265.249 255.517 265.981 255.517H268.004C268.93 255.517 269.734 254.884 269.954 253.984C270.222 252.938 270.246 251.867 270.051 250.821L268.345 243.302C268.223 242.669 268.053 241.939 267.736 241.258H263.421V241.282Z" fill="#FFBD3A"/>
<path d="M234 210.816L230.466 237.924C230.32 238.8 230.027 239.627 229.613 240.406L223.812 251.307L225.177 253.156L230.49 250.504L235.219 241.987C235.195 240.527 235.414 239.092 235.853 237.705L243.165 210.816H234Z" fill="#966363"/>
<path opacity="0.15" d="M230.49 242.401C230.905 241.622 231.733 239.724 231.855 238.848L235.682 217.848C235.877 216.826 236.584 215.95 237.535 215.561L242.385 213.566L242.605 212.763L233.44 214.928L230.441 237.899C230.295 238.775 230.003 239.602 229.588 240.381L223.787 251.282L224.616 252.669L230.49 242.401Z" fill="black"/>
<path d="M220.058 253.01L223.812 251.307C225.835 251.648 227.882 250.869 229.174 249.287L235.219 241.987C236.316 244.323 236.706 246.927 236.316 249.458L235.439 255.517H234.756L234.561 249.287C234.537 248.825 233.976 248.63 233.684 248.995L230.003 253.497C228.955 254.787 227.371 255.517 225.713 255.517H219.01C218.571 255.517 218.254 255.054 218.425 254.641C218.766 253.935 219.351 253.327 220.058 253.01Z" fill="#FFBD3A"/>
<path d="M263.129 238.118C263.422 240.649 263.568 243.179 263.519 245.734L263.47 248.776C263.519 250.114 264.616 251.161 265.957 251.161H266.371C267.882 251.161 269.028 249.822 268.833 248.338L268.126 244.737C267.76 242.912 267.638 241.038 267.736 239.189L269.686 204.197L260.204 206.898L263.129 238.118Z" fill="#966363"/>
<path d="M266.906 99.1264L258.887 97.4961L245.822 97.6421L241.02 98.9318C238.022 99.8808 236.535 102.484 236.584 105.623L237.023 107.911L235.779 112.193C235.048 114.967 235.999 116.573 237.924 118.812C238.534 119.518 238.851 119.81 239.094 121.148C239.094 121.148 240.264 125.552 240.484 127.377C241.313 134.507 241.02 139.86 241.02 139.86L265.688 139.812C266.833 139.812 267.321 138.595 266.784 137.597C266.784 137.597 265.103 134.264 264.786 131.441C263.762 122.243 266.394 111.293 266.394 111.293L271.562 105.575C271.708 102.582 269.758 99.7834 266.906 99.1264Z" fill="#FFBD3A"/>
<path d="M241.629 139.836L233.439 215.147L269.612 205.901L269.978 174.924C270.124 163.317 268.734 151.735 265.883 140.493L265.712 139.787L241.629 139.836Z" fill="#3F4249"/>
<g opacity="0.15">
<path opacity="0.15" d="M253.745 130.225C253.672 130.225 253.599 130.176 253.599 130.103C253.574 130.03 253.647 129.933 253.72 129.933L264.031 127.937C264.104 127.913 264.202 127.986 264.202 128.059C264.226 128.132 264.153 128.229 264.08 128.229L253.769 130.225C253.769 130.225 253.769 130.225 253.745 130.225Z" fill="black"/>
</g>
<path d="M249.626 130.662L246.652 130.078L245.994 130.711L246.774 131.635L249.626 130.662Z" fill="#966363"/>
<path opacity="0.15" d="M249.626 130.662L246.652 130.078L245.994 130.711L246.774 131.635L249.626 130.662Z" fill="black"/>
<path opacity="0.15" d="M260.35 208.213L263.128 238.143C263.25 239.189 263.348 240.236 263.396 241.258V241.282C263.494 242.766 263.518 244.251 263.494 245.735L263.445 248.777C263.494 250.066 264.518 251.088 265.785 251.161C264.64 250.261 264.713 248.801 264.688 247.706L262.616 211.449C262.543 210.33 263.177 209.284 264.201 208.821L269.539 206.364L269.563 205.901L260.35 208.213Z" fill="black"/>
<path opacity="0.15" d="M217.986 118.204L216.841 120.637C216.451 121.489 215.525 121.976 214.598 121.83L210.333 121.148C209.991 121.075 209.626 121.1 209.309 121.197C208.431 121.489 206.481 122 204.629 121.513C204.653 121.538 204.678 121.538 204.702 121.538H204.726C205.994 122.292 207.481 122.462 208.992 122.073L209.382 122C209.626 121.951 209.87 121.951 210.089 122L217.011 123.363L217.986 118.204Z" fill="black"/>
<path opacity="0.15" d="M249.09 135.723L253.209 134.847L265.202 133.85L265.324 133.898C265.909 135.577 266.128 136.137 266.591 137.207L264.836 137.28C262.106 137.329 259.376 137.183 256.646 136.867C254.135 136.575 251.6 136.599 249.065 136.964V135.723H249.09Z" fill="black"/>
<path d="M271.246 103.287L268.736 103.457C266.737 106.767 265.542 109.419 265.664 113.264L265.494 114.797L270.344 127.085L258.474 129.348L260.375 134.215L275.877 133.193C278.144 133.047 279.753 130.613 278.924 128.326L271.246 103.287Z" fill="#FFBD3A"/>
<path d="M240.508 142.512L240.776 139.836L265.663 139.763L266.345 142.512H240.508Z" fill="#21252B"/>
<path opacity="0.2" d="M257.376 142.513C252.939 142.513 249.186 145.798 248.601 150.178L240.069 213.444L233.439 215.148L241.313 142.513H257.376Z" fill="black"/>
<path d="M252.99 140.931L243.923 125.285C243.728 124.944 243.289 124.774 242.899 124.92L230.102 129.227C229.615 129.397 229.395 129.932 229.639 130.37L238.195 145.214C238.39 145.53 238.78 145.7 239.17 145.603L252.479 142.099C253.015 141.977 253.259 141.393 252.99 140.931Z" fill="#3F4249"/>
<path opacity="0.8" d="M252.99 140.931L243.923 125.285C243.728 124.944 243.289 124.774 242.899 124.92L230.102 129.227C229.615 129.397 229.395 129.932 229.639 130.37L238.195 145.214C238.39 145.53 238.78 145.7 239.17 145.603L252.479 142.099C253.015 141.977 253.259 141.393 252.99 140.931Z" fill="black"/>
<path d="M252.55 141.101L243.482 125.455C243.287 125.114 242.849 124.944 242.459 125.09L229.662 129.421C229.174 129.591 228.955 130.127 229.199 130.565L237.754 145.408C237.949 145.724 238.339 145.895 238.729 145.797L252.038 142.293C252.55 142.123 252.818 141.539 252.55 141.101Z" fill="#21252B"/>
<path d="M239.316 132.95C239.145 132.755 239.072 132.561 239.145 132.39C238.755 132.244 238.316 132.22 237.975 132.342C237.39 132.536 237.268 133.072 237.707 133.51C238.146 133.948 238.95 134.142 239.535 133.948C239.876 133.826 240.071 133.583 240.071 133.315C239.779 133.266 239.511 133.12 239.316 132.95Z" fill="#3F4249"/>
<path opacity="0.4" d="M231.558 131.105C231.681 130.882 231.514 130.553 231.184 130.371C230.854 130.189 230.487 130.223 230.363 130.446C230.239 130.67 230.407 130.998 230.736 131.18C231.066 131.362 231.434 131.329 231.558 131.105Z" fill="black"/>
<path d="M231.453 131.154C231.577 130.931 231.41 130.602 231.08 130.42C230.75 130.238 230.382 130.272 230.258 130.495C230.135 130.719 230.302 131.047 230.632 131.229C230.962 131.411 231.33 131.378 231.453 131.154Z" fill="#3F4249"/>
<path opacity="0.5" d="M231.243 131.07C231.328 130.917 231.215 130.693 230.991 130.569C230.767 130.446 230.517 130.47 230.432 130.623C230.348 130.775 230.461 131 230.685 131.123C230.908 131.247 231.159 131.223 231.243 131.07Z" fill="black"/>
<path opacity="0.4" d="M230.588 130.833C230.515 130.663 230.613 130.517 230.783 130.492C230.759 130.492 230.735 130.492 230.71 130.492C230.491 130.492 230.369 130.638 230.442 130.833C230.515 131.028 230.759 131.174 230.978 131.174C231.003 131.174 231.027 131.174 231.052 131.174C230.857 131.149 230.637 131.003 230.588 130.833Z" fill="black"/>
<path d="M258.449 129.349L251.551 130.663C251.478 130.687 251.38 130.687 251.307 130.687L246.944 130.614C246.481 130.614 246.042 130.687 245.604 130.833L240.558 132.682C240.339 132.755 240.217 132.999 240.29 133.218C240.363 133.461 240.607 133.607 240.826 133.534L245.652 132.269L241.07 134.775C240.85 134.896 240.753 135.164 240.875 135.408C240.997 135.627 241.24 135.724 241.484 135.626L246.164 133.777L241.947 135.432C241.728 135.529 241.606 135.773 241.679 136.016C241.752 136.259 241.996 136.405 242.24 136.332L246.53 135.164L242.825 136.186C242.63 136.235 242.508 136.454 242.557 136.649C242.605 136.843 242.8 136.989 243.02 136.941L252.892 134.848L260.399 134.215L258.449 129.349Z" fill="#966363"/>
<g opacity="0.15">
<path opacity="0.15" d="M241.923 135.602C241.849 135.602 241.801 135.554 241.776 135.505C241.752 135.432 241.776 135.335 241.874 135.31L245.798 133.753C245.871 133.729 245.969 133.753 245.993 133.85C246.018 133.923 245.993 134.021 245.896 134.045L241.971 135.602C241.947 135.602 241.947 135.602 241.923 135.602Z" fill="black"/>
</g>
<g opacity="0.15">
<path opacity="0.15" d="M242.8 136.332C242.727 136.332 242.678 136.283 242.654 136.21C242.629 136.137 242.678 136.04 242.751 136.016L246.456 134.994C246.529 134.969 246.627 135.018 246.651 135.091C246.676 135.164 246.627 135.261 246.554 135.286L242.849 136.308C242.824 136.332 242.824 136.332 242.8 136.332Z" fill="black"/>
</g>
<path opacity="0.15" d="M242.532 136.649C242.581 136.843 242.776 136.989 242.995 136.941L252.867 134.848L260.375 134.215L258.473 129.349L258.742 132.171C258.79 132.731 258.4 133.217 257.864 133.315L252.209 134.239L242.532 136.649Z" fill="black"/>
<path opacity="0.6" d="M258.45 129.349L259.523 129.105L261.546 134.118L260.351 134.215L258.45 129.349Z" fill="black"/>
<path d="M262.617 102.63C262.846 102.63 263.031 102.445 263.031 102.216C263.031 101.988 262.846 101.803 262.617 101.803C262.387 101.803 262.202 101.988 262.202 102.216C262.202 102.445 262.387 102.63 262.617 102.63Z" fill="white"/>
<path d="M252.673 104.018C252.902 104.018 253.088 103.832 253.088 103.604C253.088 103.376 252.902 103.19 252.673 103.19C252.444 103.19 252.259 103.376 252.259 103.604C252.259 103.832 252.444 104.018 252.673 104.018Z" fill="white"/>
<path d="M266.762 131.587C266.991 131.587 267.176 131.402 267.176 131.173C267.176 130.945 266.991 130.76 266.762 130.76C266.533 130.76 266.348 130.945 266.348 131.173C266.348 131.402 266.533 131.587 266.762 131.587Z" fill="white"/>
<path d="M263.006 112.437C263.235 112.437 263.421 112.251 263.421 112.023C263.421 111.795 263.235 111.609 263.006 111.609C262.777 111.609 262.592 111.795 262.592 112.023C262.592 112.251 262.777 112.437 263.006 112.437Z" fill="white"/>
<path d="M272.659 112.704C272.888 112.704 273.073 112.519 273.073 112.291C273.073 112.062 272.888 111.877 272.659 111.877C272.429 111.877 272.244 112.062 272.244 112.291C272.244 112.519 272.429 112.704 272.659 112.704Z" fill="white"/>
<path d="M247.576 110.442C247.806 110.442 247.991 110.256 247.991 110.028C247.991 109.799 247.806 109.614 247.576 109.614C247.347 109.614 247.162 109.799 247.162 110.028C247.162 110.256 247.347 110.442 247.576 110.442Z" fill="white"/>
<path d="M239.144 113.239C239.373 113.239 239.558 113.054 239.558 112.826C239.558 112.597 239.373 112.412 239.144 112.412C238.915 112.412 238.729 112.597 238.729 112.826C238.729 113.054 238.915 113.239 239.144 113.239Z" fill="white"/>
<path d="M235.536 108.543C235.765 108.543 235.951 108.358 235.951 108.129C235.951 107.901 235.765 107.716 235.536 107.716C235.308 107.716 235.122 107.901 235.122 108.129C235.122 108.358 235.308 108.543 235.536 108.543Z" fill="white"/>
<path d="M234.294 120.904C234.523 120.904 234.709 120.719 234.709 120.491C234.709 120.262 234.523 120.077 234.294 120.077C234.065 120.077 233.88 120.262 233.88 120.491C233.88 120.719 234.065 120.904 234.294 120.904Z" fill="white"/>
<path d="M226.955 124.044C227.184 124.044 227.37 123.859 227.37 123.63C227.37 123.402 227.184 123.217 226.955 123.217C226.726 123.217 226.541 123.402 226.541 123.63C226.541 123.859 226.726 124.044 226.955 124.044Z" fill="white"/>
<path d="M221.909 119.567C222.138 119.567 222.324 119.381 222.324 119.153C222.324 118.924 222.138 118.739 221.909 118.739C221.681 118.739 221.495 118.924 221.495 119.153C221.495 119.381 221.681 119.567 221.909 119.567Z" fill="white"/>
<path d="M243.75 101.121C243.979 101.121 244.165 100.936 244.165 100.708C244.165 100.479 243.979 100.294 243.75 100.294C243.521 100.294 243.336 100.479 243.336 100.708C243.336 100.936 243.521 101.121 243.75 101.121Z" fill="white"/>
<path d="M254.086 115.673C254.315 115.673 254.501 115.488 254.501 115.259C254.501 115.031 254.315 114.846 254.086 114.846C253.857 114.846 253.672 115.031 253.672 115.259C253.672 115.488 253.857 115.673 254.086 115.673Z" fill="white"/>
<path d="M250.943 127.888C251.172 127.888 251.357 127.703 251.357 127.474C251.357 127.246 251.172 127.061 250.943 127.061C250.714 127.061 250.528 127.246 250.528 127.474C250.528 127.703 250.714 127.888 250.943 127.888Z" fill="white"/>
<path d="M257.473 136.6C257.702 136.6 257.887 136.415 257.887 136.186C257.887 135.958 257.702 135.772 257.473 135.772C257.244 135.772 257.059 135.958 257.059 136.186C257.059 136.415 257.244 136.6 257.473 136.6Z" fill="white"/>
<path d="M245.993 121.221C246.222 121.221 246.407 121.036 246.407 120.807C246.407 120.579 246.222 120.394 245.993 120.394C245.763 120.394 245.578 120.579 245.578 120.807C245.578 121.036 245.763 121.221 245.993 121.221Z" fill="white"/>
<path d="M243.336 130.905C243.565 130.905 243.751 130.72 243.751 130.492C243.751 130.263 243.565 130.078 243.336 130.078C243.107 130.078 242.922 130.263 242.922 130.492C242.922 130.72 243.107 130.905 243.336 130.905Z" fill="white"/>
<path d="M270.467 122.024C270.696 122.024 270.881 121.838 270.881 121.61C270.881 121.381 270.696 121.196 270.467 121.196C270.238 121.196 270.053 121.381 270.053 121.61C270.053 121.838 270.238 122.024 270.467 122.024Z" fill="white"/>
<path d="M260.033 123.824C260.262 123.824 260.447 123.639 260.447 123.411C260.447 123.182 260.262 122.997 260.033 122.997C259.803 122.997 259.618 123.182 259.618 123.411C259.618 123.639 259.803 123.824 260.033 123.824Z" fill="white"/>
<path opacity="0.6" d="M257.595 99.7833L260.764 97.861L258.912 97.4717L245.847 97.6177L244.579 97.9583L247.699 99.8077C250.746 101.633 254.573 101.608 257.595 99.7833Z" fill="black"/>
<path d="M258.863 77.3239C261.083 77.3239 262.885 75.5262 262.885 73.3089C262.885 71.0914 261.083 69.2939 258.863 69.2939C256.642 69.2939 254.841 71.0914 254.841 73.3089C254.841 75.5262 256.642 77.3239 258.863 77.3239Z" fill="#21252B"/>
<path d="M261.154 76.6177C260.203 77.2747 258.96 77.5181 257.766 77.1774C255.621 76.5691 254.402 74.3304 255.011 72.1891C255.06 72.0431 255.109 71.9214 255.158 71.7754C256.961 72.0431 260.106 73.6491 261.154 76.6177Z" fill="#FFBD3A"/>
<path d="M256.89 90.0007C256.695 94.3321 255.403 96.7413 257.816 96.8386C261.667 97.009 264.958 93.6266 265.153 89.2953C265.348 84.964 262.374 81.314 258.498 81.168C257.475 84.8666 257.06 85.6696 256.89 90.0007Z" fill="#21252B"/>
<path d="M255.184 90.2337C255.513 86.4852 252.661 83.1732 248.812 82.8364C244.963 82.4994 241.576 85.2651 241.247 89.0139C240.917 92.7624 243.771 96.0745 247.62 96.4112C251.469 96.748 254.855 93.9823 255.184 90.2337Z" fill="#21252B"/>
<path d="M257.06 87.0573L257.304 95.8173C257.328 96.523 257.816 97.1313 258.498 97.326L259.498 97.5937L257.206 99.005C254.501 100.684 251.064 100.708 248.334 99.078L245.848 97.5937L246.969 97.2773C247.603 97.107 248.066 96.5473 248.139 95.9147L249.285 85.5L257.06 87.0573Z" fill="#966363"/>
<path d="M250.942 93.5294L251.356 93.5538C254.354 93.6754 256.865 91.3638 256.987 88.3951L257.304 80.8274C257.353 79.8298 256.573 79.0024 255.573 78.9538L248.48 78.6374C247.188 78.5888 246.091 79.5864 246.043 80.8761L245.75 87.9085C245.653 90.8771 247.968 93.4078 250.942 93.5294Z" fill="#966363"/>
<path d="M251.526 85.8409C251.851 85.8409 252.111 85.5793 252.111 85.2569C252.111 84.9342 251.851 84.6729 251.526 84.6729C251.202 84.6729 250.941 84.9342 250.941 85.2569C250.941 85.5793 251.202 85.8409 251.526 85.8409Z" fill="#21252B"/>
<path d="M251.284 85.256C251.352 85.256 251.406 85.2015 251.406 85.1344C251.406 85.0672 251.352 85.0127 251.284 85.0127C251.216 85.0127 251.162 85.0672 251.162 85.1344C251.162 85.2015 251.216 85.256 251.284 85.256Z" fill="white"/>
<path d="M246.969 85.8409C247.293 85.8409 247.554 85.5793 247.554 85.2569C247.554 84.9342 247.293 84.6729 246.969 84.6729C246.645 84.6729 246.384 84.9342 246.384 85.2569C246.384 85.5793 246.645 85.8409 246.969 85.8409Z" fill="#21252B"/>
<path d="M246.725 85.2316C246.794 85.2316 246.847 85.1771 246.847 85.1099C246.847 85.0428 246.794 84.9883 246.725 84.9883C246.657 84.9883 246.604 85.0428 246.604 85.1099C246.604 85.1771 246.657 85.2316 246.725 85.2316Z" fill="white"/>
<g opacity="0.3">
<path opacity="0.3" d="M249.088 88.6628L249.868 88.7358C249.966 88.7358 250.039 88.6628 250.063 88.5898C250.063 88.4924 249.99 88.4194 249.917 88.3951L249.137 88.3221C248.942 88.2977 248.796 88.1274 248.82 87.9328C248.845 87.7381 249.015 87.5921 249.21 87.5921C249.308 87.5921 249.381 87.5191 249.405 87.4461C249.405 87.3488 249.332 87.2758 249.259 87.2514C248.869 87.2271 248.528 87.5191 248.503 87.8841C248.406 88.2978 248.698 88.6384 249.088 88.6628Z" fill="black"/>
</g>
<path d="M243.752 84.3558C244.629 83.7718 244.288 82.6038 244.288 82.6038C244.142 82.1172 244.02 81.6062 244.02 81.0222C243.996 79.2215 244.971 78.5158 245.483 78.2725C245.678 78.1752 245.799 78.0048 245.799 77.8102C246.189 72.1892 253.916 70.8508 257.963 74.2088C260.4 76.2528 260.961 78.5158 260.766 80.6328C260.766 80.6328 260.619 81.5818 261.473 82.0442L260.424 82.4822C260.01 84.0395 259.328 85.4752 258.938 86.5945C258.767 87.0812 257.889 85.0858 257.475 84.8668C257.426 84.8425 257.036 85.3778 256.793 85.7185C256.646 85.9375 256.281 85.9132 256.208 85.6455C255.915 84.6965 255.793 83.6988 255.842 82.7012L255.891 81.8008C253.916 81.5088 253.161 79.6352 253.161 79.6352C251.211 81.8008 247.944 81.5575 246.628 81.3628C246.311 81.3142 246.043 81.5575 246.019 81.8738L245.873 85.2562C245.873 85.2562 245.361 84.7695 244.873 83.9422L243.971 84.5748L243.752 84.3558Z" fill="#21252B"/>
<path d="M256.595 88.6877C256.595 88.6877 259.155 89.1014 259.91 86.6194C260.666 84.1131 257.546 83.3831 256.888 85.9137L256.303 88.6877H256.595Z" fill="#966363"/>
<path opacity="0.3" d="M259.229 85.2077C258.961 84.9887 258.717 84.9157 258.473 84.94C258.229 84.9644 258.01 85.1103 257.815 85.378C257.62 85.6457 257.474 85.9863 257.449 86.3513L257.425 86.619C257.401 86.8137 257.742 86.911 257.766 86.6677C257.815 86.3757 257.815 86.3757 257.815 86.3757C257.815 86.2784 257.913 85.816 258.108 85.5727C258.254 85.378 258.4 85.2807 258.546 85.2563C258.693 85.232 258.863 85.305 259.058 85.451C259.131 85.4997 259.229 85.4997 259.302 85.4267C259.326 85.3537 259.302 85.2564 259.229 85.2077Z" fill="black"/>
<path d="M244.263 85.7188C244.165 87.0085 245.14 88.1521 246.432 88.2495C247.724 88.3468 248.869 87.3735 248.967 86.0838C248.991 85.6458 248.918 85.2078 248.723 84.8428C249.211 84.6968 249.674 84.7941 249.893 84.8671C249.796 85.1105 249.723 85.3538 249.698 85.6215C249.601 86.9111 250.576 88.0548 251.868 88.1521C253.159 88.2495 254.305 87.2761 254.403 85.9865C254.5 84.6968 253.525 83.5531 252.233 83.4558C251.307 83.3828 250.478 83.8451 250.039 84.5751C249.796 84.4778 249.235 84.3318 248.577 84.5508C248.187 83.9911 247.553 83.6018 246.822 83.5288C245.506 83.4558 244.36 84.4291 244.263 85.7188ZM249.966 85.6458C250.064 84.5265 251.039 83.6748 252.16 83.7721C253.281 83.8695 254.134 84.8428 254.037 85.9621C253.939 87.0815 252.964 87.9331 251.843 87.8358C250.746 87.7628 249.893 86.7651 249.966 85.6458ZM244.579 85.7431C244.677 84.6238 245.652 83.7721 246.773 83.8695C247.894 83.9668 248.748 84.9401 248.65 86.0595C248.553 87.1788 247.578 88.0305 246.456 87.9331C245.335 87.8358 244.482 86.8625 244.579 85.7431Z" fill="white"/>
<path d="M257.377 88.3472C257.66 88.3472 257.889 88.1185 257.889 87.8362C257.889 87.5539 257.66 87.3252 257.377 87.3252C257.094 87.3252 256.865 87.5539 256.865 87.8362C256.865 88.1185 257.094 88.3472 257.377 88.3472Z" fill="#FFBD3A"/>
<path opacity="0.15" d="M257.157 88.2737C257.474 88.298 257.742 88.079 257.766 87.7627C257.766 87.6654 257.742 87.5437 257.693 87.4707C257.815 87.568 257.888 87.7384 257.888 87.9087C257.864 88.2007 257.62 88.3954 257.328 88.371C257.23 88.371 257.108 88.3224 257.035 88.2494C257.084 88.2494 257.133 88.2494 257.157 88.2737Z" fill="black"/>
<path d="M247.211 82.3849C249.502 82.4579 251.062 81.7523 251.964 81.1196C252.963 80.4626 253.402 79.7813 253.426 79.7326C253.475 79.6596 253.451 79.5623 253.378 79.5136C253.304 79.4649 253.207 79.4893 253.158 79.5623C253.134 79.5866 251.403 82.1903 247.211 82.0686C247.138 82.0686 247.064 82.1416 247.064 82.2146C247.064 82.2876 247.138 82.3606 247.211 82.3849Z" fill="#21252B"/>
<path opacity="0.15" d="M257.108 88.7119H256.279L257.157 90.4639L257.108 88.7119Z" fill="black"/>
<path opacity="0.15" d="M248.259 92.6297C249.088 93.1164 250.039 93.3354 251.038 93.3841C251.258 93.3841 251.477 93.3841 251.696 93.3841C251.769 93.3841 251.867 93.3841 251.94 93.3597C251.964 93.3597 251.964 93.3597 251.989 93.3597C252.111 93.3354 252.233 93.3354 252.379 93.3111C252.428 93.3111 252.476 93.2867 252.525 93.2867C253.378 93.1407 254.012 92.8487 254.426 92.6054C254.499 92.5567 254.597 92.5811 254.646 92.6541C254.694 92.7271 254.67 92.8244 254.597 92.8731C254.061 93.1894 253.232 93.5544 252.111 93.6761C251.526 94.1141 250.526 94.6494 249.259 94.6494C248.844 94.6494 248.43 94.6007 248.04 94.5034L248.259 92.6297Z" fill="black"/>
<path d="M248.651 89.5879C248.578 89.5879 248.529 89.6609 248.553 89.7339C248.846 90.2936 249.406 90.6829 250.064 90.6829C250.723 90.6829 251.283 90.2936 251.576 89.7339C251.6 89.6609 251.576 89.5879 251.478 89.5879H248.651Z" fill="white"/>
<path opacity="0.6" d="M218.01 118.082L219.18 118.106L218.108 123.63L217.011 123.411L218.01 118.082Z" fill="black"/>
<path opacity="0.15" d="M271.391 126.867L270.319 127.061L265.955 116.014L265.59 115.089C265.931 113.508 266.37 111.439 266.662 110.198C266.735 109.906 267.15 109.882 267.223 110.174L272.098 125.65C272.293 126.21 271.952 126.769 271.391 126.867Z" fill="black"/>
<path opacity="0.15" d="M237.925 118.788C236 116.549 235.683 114.335 236.414 111.561L237.194 108.69L237.852 105.599C237.852 105.575 237.852 105.551 237.852 105.551C237.852 105.502 237.804 105.453 237.73 105.429C237.657 105.405 237.56 105.453 237.535 105.551L236.731 109.201L236.341 110.442C236.341 110.442 233.197 114.919 234.172 118.326C234.537 119.567 234.757 120.394 234.001 121.44L232.612 123.46C231.369 124.604 229.516 124.312 229.516 124.312L217.207 122.316L216.987 123.46L228.395 125.699C228.37 125.699 228.37 125.699 228.346 125.699L229.565 125.918C231.32 126.234 233.124 125.65 234.342 124.409C234.537 124.214 234.708 124.02 234.879 123.776L238.169 119.153C238.096 119.007 238.023 118.885 237.925 118.788Z" fill="black"/>
<path d="M284.043 150.81C284.043 151.808 283.239 152.635 282.215 152.635H90.9443C89.945 152.635 89.1162 151.832 89.1162 150.81C89.1162 149.813 89.9206 148.985 90.9443 148.985H282.239C283.239 148.985 284.043 149.813 284.043 150.81Z" fill="#61656D"/>
<path opacity="0.5" d="M284.043 150.81C284.043 151.808 283.239 152.635 282.215 152.635H90.9443C89.945 152.635 89.1162 151.832 89.1162 150.81C89.1162 149.813 89.9206 148.985 90.9443 148.985H282.239C283.239 148.985 284.043 149.813 284.043 150.81Z" fill="black"/>
<path d="M298.399 150.81C298.399 151.808 297.595 152.635 296.571 152.635H125.8C124.8 152.635 123.972 151.832 123.972 150.81C123.972 149.813 124.776 148.985 125.8 148.985H296.571C297.57 148.985 298.399 149.813 298.399 150.81Z" fill="#61656D"/>
<path d="M232.49 66.666H210.528V94.5764H232.49V66.666Z" fill="white"/>
<path d="M229.54 69.4883H213.452V91.7776H229.54V69.4883Z" fill="#DDDDDD"/>
<path d="M209.888 94.5851H210.521V66.6748H209.888V94.5851Z" fill="#DADDDF"/>
<path d="M224.178 83.6751C226.103 83.6751 227.664 82.1171 227.664 80.1955C227.664 78.2736 226.103 76.7158 224.178 76.7158C222.253 76.7158 220.692 78.2736 220.692 80.1955C220.692 82.1171 222.253 83.6751 224.178 83.6751Z" fill="#FFBD3A"/>
<path opacity="0.2" d="M214.867 89.3688L218.499 83.6748L222.131 89.2958L214.867 89.3688Z" fill="black"/>
<path opacity="0.2" d="M223.374 71.8975H215.842V79.4165H223.374V71.8975Z" fill="black"/>
<path d="M233.976 148.498L234.829 137.67H227.103L227.761 148.498C227.785 148.766 228.004 148.985 228.297 148.985H233.44C233.708 148.985 233.952 148.766 233.976 148.498Z" fill="white"/>
<path d="M234.829 136.745H233.976L233.586 135.748C233.562 135.675 233.488 135.65 233.44 135.65H228.272C228.199 135.65 228.15 135.699 228.126 135.748L227.736 136.745H227.078C226.98 136.745 226.907 136.818 226.907 136.916V137.524C226.907 137.621 226.98 137.694 227.078 137.694H234.878C234.975 137.694 235.048 137.621 235.048 137.524V136.916C235 136.818 234.927 136.745 234.829 136.745Z" fill="#FFBD3A"/>
<path opacity="0.2" d="M234.829 136.745H233.976L233.586 135.748C233.562 135.675 233.488 135.65 233.44 135.65H228.272C228.199 135.65 228.15 135.699 228.126 135.748L227.736 136.745H227.078C226.98 136.745 226.907 136.818 226.907 136.916V137.524C226.907 137.621 226.98 137.694 227.078 137.694H234.878C234.975 137.694 235.048 137.621 235.048 137.524V136.916C235 136.818 234.927 136.745 234.829 136.745Z" fill="white"/>
<path opacity="0.15" d="M233.903 136.551H229.613L229.93 135.65H228.272C228.199 135.65 228.15 135.699 228.126 135.748L227.736 136.745H227.078C226.98 136.745 226.907 136.818 226.907 136.916V137.524C226.907 137.621 226.98 137.694 227.078 137.694H228.467C228.589 137.354 228.735 136.94 228.735 136.94C228.76 136.843 228.857 136.794 228.955 136.794H229.564H234L233.903 136.551Z" fill="black"/>
<path opacity="0.15" d="M234.805 137.938L234.829 137.67H227.103L227.761 148.498C227.785 148.766 228.004 148.985 228.297 148.985H228.663L228.931 138.327L234.805 137.938Z" fill="black"/>
<path d="M228.638 142.731C228.638 141.563 229.613 140.614 230.831 140.614C232.05 140.614 233.025 141.563 233.025 142.731" fill="#FFBD3A"/>
<path d="M234.367 143.34H227.444L227.566 145.457H234.196L234.367 143.34Z" fill="#FFBD3A"/>
<path d="M326.187 255.857H58.5983C58.5008 255.857 58.4033 255.784 58.4033 255.662C58.4033 255.541 58.5008 255.468 58.5983 255.468H326.211C326.309 255.468 326.406 255.541 326.406 255.662C326.406 255.784 326.309 255.857 326.187 255.857Z" fill="#B2B6BB"/>
</svg>
